<svg xmlns="http://www.w3.org/2000/svg" viewBox="0 0 64 64">
  <defs>
    <linearGradient id="g" x1="0" x2="1" y1="0" y2="1">
      <stop offset="0%" stop-color="#7C3AED"/>
      <stop offset="100%" stop-color="#22D3EE"/>
    </linearGradient>
  </defs>
  <rect width="64" height="64" rx="14" fill="url(#g)"/>
  <g fill="#fff" transform="translate(12,12)">
    <path d="M20 0l12 6v10c0 8.8-5.7 16.8-14 19.4C10.7 32.8 5 24.8 5 16V6L17 0v8l3 1 3-1V0z" opacity=".2"/>
    <path d="M20 2l10 5v9.2c0 7.9-5.1 15-12.6 17.5C9.9 31.2 4.8 24.1 4.8 16.2V7L15.8 2v7.2c0 .5.3.9.8 1.1l2.6.9c.2.1.5.1.8 0l2.6-.9c.5-.2.8-.6.8-1.1V2z"/>
    <path d="M13.5 18.5l4.2 4.2 8.8-8.8" stroke="#fff" stroke-width="2.6" fill="none" stroke-linecap="round" stroke-linejoin="round"/>
  </g>
</svg>
